<svg id="Layer_1" data-name="Layer 1" xmlns="http://www.w3.org/2000/svg" viewBox="0 0 525.91 300"><defs><style>.cls-1{fill:none;stroke:#1d1d1b;stroke-miterlimit:10;stroke-width:12px;}</style></defs><title>RD_logo2</title><path class="cls-1" d="M235.42,108h-180l72,72h108a36,36,0,1,1,0,72h-36l67.36,67.36A108,108,0,0,0,235.42,108Z" transform="translate(-39.51 -102)"/><polygon class="cls-1" points="116.13 150 14.48 150 158.49 294 260.13 294 239.19 273.06 116.13 150"/><path class="cls-1" d="M379.42,108v72c49.7,0,90,32.24,90,72s-40.3,72-90,72v72c99.41,0,180-64.47,180-144S478.83,108,379.42,108Z" transform="translate(-39.51 -102)"/></svg>